<?xml version="1.0" encoding="UTF-8" standalone="no"?>
<!DOCTYPE svg PUBLIC "-//W3C//DTD SVG 1.1//EN" "http://www.w3.org/Graphics/SVG/1.1/DTD/svg11.dtd">
<svg width="100%" height="100%" viewBox="0 0 609 556" version="1.1" xmlns="http://www.w3.org/2000/svg" xmlns:xlink="http://www.w3.org/1999/xlink" xml:space="preserve" xmlns:serif="http://www.serif.com/" style="fill-rule:evenodd;clip-rule:evenodd;stroke-linejoin:round;stroke-miterlimit:2;">
    <g id="Artboard1" transform="matrix(0.348349,0,0,0.224074,0,0)">
        <rect x="0" y="0" width="1748.03" height="2480.32" style="fill:none;"/>
        <g transform="matrix(0.866025,0.777306,0.321624,-0.866025,-261.165,1770.12)">
            <g opacity="0.25">
                <g transform="matrix(0.367237,-0.119107,0.0766153,0.570911,243.897,696.819)">
                    <path d="M-102.09,1394.26C-71.257,1532.98 10.461,1660.03 137.127,1744.65C171.104,1767.35 206.664,1785.89 243.213,1800.39C220.699,1819.35 200.434,1841.78 183.25,1867.5C86.175,2012.82 123.969,2208.69 267.596,2304.64C411.222,2400.58 606.642,2360.5 703.716,2215.19C715.855,2197.02 725.885,2178.06 733.862,2158.6C746.396,2167.56 759.14,2176.37 772.088,2185.02C893.168,2265.9 1020.22,2324.85 1145.58,2361.97C1139.01,2469.85 1187.72,2577.77 1283.18,2641.54C1426.81,2737.49 1622.23,2697.41 1719.3,2552.09C1761.47,2488.97 1778.19,2416.32 1771.84,2346.45C1817.49,2325.59 1859.34,2299.55 1896.52,2268.36C2143.34,2335.42 2637.75,2429.26 2637.75,2429.26C2637.75,2429.26 2456.78,2246.33 2282.93,2080.91C2520.12,2070.29 2770.52,2051.67 2770.52,2051.67C2770.52,2051.67 2562.55,1930.09 2358.15,1818.23C2590.07,1774.43 2832.07,1721.4 2832.07,1721.4C2832.07,1721.4 2593.83,1624.17 2369,1540.25C2583,1437.39 2806,1322 2806,1322C2806,1322 2559.97,1290.91 2324.96,1268.13C2469.74,1152.68 2592.75,1050.66 2592.75,1050.66C2592.75,1050.66 2336.46,1073.57 2098.18,1102.15C2241.14,912.58 2386.35,707.738 2386.35,707.738C2386.35,707.738 2160.13,790.553 1943.68,876.795C2057.7,670.151 2171.03,449.854 2171.03,449.854C2171.03,449.854 1944.29,571.505 1736.35,691.305C1793.44,460.838 1846.6,215.444 1846.6,215.444C1846.6,215.444 1684.3,367.93 1524.93,525.686C1608.25,322.166 1684.49,121.736 1684.49,121.736C1684.49,121.736 1472.72,267.895 1279.42,410.12C1310.47,174.726 1335.96,-75.063 1335.96,-75.063C1335.96,-75.063 1179.87,108.423 1033.96,290.083C1031.42,54.083 1021.57,-193.462 1021.57,-193.462C1021.57,-193.462 884.14,24.083 762.168,230.757C698.349,2.062 623.762,-237.69 623.762,-237.69C623.762,-237.69 519.325,98.01 451.872,353.857C308.263,172.973 156.174,-8.065 156.174,-8.065C156.174,-8.065 202.147,471.868 245.43,728.476C142.09,771.02 49.607,843.904 -17.338,944.115C-46.98,988.487 -69.755,1035.43 -85.91,1083.68C-128.266,1090.38 -167.97,1114.21 -193.807,1152.89C-242.577,1225.9 -223.589,1324.3 -151.432,1372.51C-135.935,1382.86 -119.239,1390.06 -102.09,1394.26ZM329.871,1091.14L317.036,862.678C316.259,848.849 326.856,836.99 340.685,836.213L390.799,833.398C404.628,832.621 416.486,843.218 417.263,857.047L430.099,1085.51L658.558,1072.67C672.387,1071.89 684.246,1082.49 685.023,1096.32L687.838,1146.43C688.615,1160.26 678.018,1172.12 664.189,1172.9L435.73,1185.73L448.565,1414.19C449.342,1428.02 438.745,1439.88 424.916,1440.66L374.802,1443.47C360.973,1444.25 349.115,1433.65 348.338,1419.82L335.502,1191.36L107.043,1204.2C93.214,1204.98 81.355,1194.38 80.578,1180.55L77.763,1130.44C76.986,1116.61 87.583,1104.75 101.412,1103.97L329.871,1091.14Z"/>
                </g>
            </g>
        </g>
    </g>
</svg>
