<?xml version="1.0" encoding="UTF-8" standalone="no"?>
<!DOCTYPE svg PUBLIC "-//W3C//DTD SVG 1.1//EN" "http://www.w3.org/Graphics/SVG/1.1/DTD/svg11.dtd">
<svg width="100%" height="100%" viewBox="0 0 609 556" version="1.1" xmlns="http://www.w3.org/2000/svg" xmlns:xlink="http://www.w3.org/1999/xlink" xml:space="preserve" xmlns:serif="http://www.serif.com/" style="fill-rule:evenodd;clip-rule:evenodd;stroke-linejoin:round;stroke-miterlimit:2;">
    <g id="Artboard1" transform="matrix(0.348349,0,0,0.224074,0,0)">
        <rect x="0" y="0" width="1748.03" height="2480.32" style="fill:none;"/>
        <g transform="matrix(0.367237,-0.119107,0.0766153,0.570911,243.897,696.819)">
            <path d="M-102.09,1394.26C-119.239,1390.06 -135.935,1382.86 -151.432,1372.51C-223.589,1324.3 -242.577,1225.9 -193.807,1152.89C-167.97,1114.21 -128.266,1090.38 -85.91,1083.68C-69.755,1035.43 -46.98,988.487 -17.338,944.115C49.607,843.904 142.09,771.02 245.43,728.476C202.147,471.868 156.174,-8.065 156.174,-8.065C156.174,-8.065 308.263,172.973 451.872,353.857C519.325,98.01 623.762,-237.69 623.762,-237.69C623.762,-237.69 698.349,2.062 762.168,230.757C884.14,24.083 1021.57,-193.462 1021.57,-193.462C1021.57,-193.462 1031.42,54.083 1033.96,290.083C1179.87,108.423 1335.96,-75.063 1335.96,-75.063C1335.96,-75.063 1310.47,174.726 1279.42,410.12C1472.72,267.895 1684.49,121.736 1684.49,121.736C1684.49,121.736 1608.25,322.166 1524.93,525.686C1684.3,367.93 1846.6,215.444 1846.6,215.444C1846.6,215.444 1793.44,460.838 1736.35,691.305C1944.29,571.505 2171.03,449.854 2171.03,449.854C2171.03,449.854 2057.7,670.151 1943.68,876.795C2160.13,790.553 2386.35,707.738 2386.35,707.738C2386.35,707.738 2241.14,912.58 2098.18,1102.15C2336.46,1073.57 2592.75,1050.66 2592.75,1050.66C2592.75,1050.66 2469.74,1152.68 2324.96,1268.13C2559.97,1290.91 2806,1322 2806,1322C2806,1322 2583,1437.39 2369,1540.25C2593.83,1624.17 2832.07,1721.4 2832.07,1721.4C2832.07,1721.4 2590.07,1774.43 2358.15,1818.23C2562.55,1930.09 2770.52,2051.67 2770.52,2051.67C2770.52,2051.67 2520.12,2070.29 2282.93,2080.91C2456.78,2246.33 2637.75,2429.26 2637.75,2429.26C2637.75,2429.26 2143.34,2335.42 1896.52,2268.36C1859.34,2299.55 1817.49,2325.59 1771.84,2346.45C1778.19,2416.32 1761.47,2488.97 1719.3,2552.09C1622.23,2697.41 1426.81,2737.49 1283.18,2641.54C1187.72,2577.77 1139.01,2469.85 1145.58,2361.97C1020.22,2324.85 893.168,2265.9 772.088,2185.02C759.14,2176.37 746.396,2167.56 733.862,2158.6C725.885,2178.06 715.855,2197.02 703.716,2215.19C606.642,2360.5 411.222,2400.58 267.596,2304.64C123.969,2208.69 86.175,2012.82 183.25,1867.5C200.434,1841.78 220.699,1819.35 243.213,1800.39C206.664,1785.89 171.104,1767.35 137.127,1744.65C10.461,1660.03 -71.257,1532.98 -102.09,1394.26ZM621.836,921.715C478.209,825.768 282.79,865.848 185.715,1011.16C88.641,1156.48 126.435,1352.35 270.061,1448.3C413.688,1544.25 609.107,1504.17 706.182,1358.85C803.257,1213.54 765.463,1017.66 621.836,921.715Z"/>
        </g>
    </g>
</svg>
